<?xml version="1.0" encoding="UTF-8" standalone="no"?>
<!-- Created with Inkscape (http://www.inkscape.org/) -->

<svg
   version="1.1"
   id="svg1"
   width="917.59998"
   height="550.58398"
   viewBox="0 0 917.59998 550.58398"
   xmlns="http://www.w3.org/2000/svg"
   xmlns:svg="http://www.w3.org/2000/svg">
  <defs
     id="defs1">
    <rect
       x="488.41068"
       y="733.52655"
       width="129.21822"
       height="55.785831"
       id="rect2" />
  </defs>
  <g
     id="g1"
     transform="translate(0,-729.416)">
    <path
       id="path21"
       style="opacity:1;fill:#f6821f;fill-opacity:1;stroke:none;stroke-width:0.301969;stroke-linecap:round;stroke-linejoin:round"
       d="m 537.046,732.00718 c -0.0689,1.35347 0.95524,2.19088 2.49178,2.63576 10.20803,2.95556 56.50006,16.39444 92.1114,39.38552 43.65004,28.18095 85.96862,74.60141 85.96862,146.56692 0,152.16132 -194.9003,207.67402 -394.49694,212.93402 -108.59238,2.8618 -264.128733,-12.8693 -316.757363,-21.7062 -3.21711,-0.5402 -5.73367997,1.4916 -6.22595997,3.6 -0.46271,1.9818 0.14461,4.3169 3.32729997,5.1189 34.77621,8.7631 191.582563,43.9045 362.420753,43.9045 181.92167,0 419.595,-44.6118 450.29168,-203.55975 2.20345,-11.40965 0.93781,-25.97003 0.93781,-38.58374 0,-60.18588 -31.01848,-101.90162 -70.0988,-130.69251 -71.91852,-52.98314 -176.90324,-62.19482 -206.81509,-62.19482 -1.98581,0 -3.07778,1.07149 -3.15519,2.5914 z" />
    <path
       id="rect1"
       style="opacity:1;fill:#0166b1;fill-opacity:1;stroke-width:2.12624;stroke-linecap:round;stroke-linejoin:round"
       d="m 126.22543,847.42711 -21.74961,127.75195 h 33.73203 l 10.46289,-70.83789 27.35938,70.83789 h 14.04712 l 29.07006,-70.83789 10.4629,70.83789 h 33.73162 l -21.7492,-127.75195 h -32.91016 l -24.77344,66.57031 -24.77343,-66.57031 z" />
    <path
       id="path10"
       style="opacity:1;fill:#0166b1;fill-opacity:1;stroke-width:2.12624;stroke-linecap:round;stroke-linejoin:round"
       d="m 534.88559,887.97008 45.1582,87.20898 c 7.03064,0.0515 14.06115,0.0234 21.0918,0 l 45.1582,-87.20898 H 610.4891 l -19.89844,43.01953 -19.89843,-43.01953 z" />
    <path
       id="path9"
       style="font-family:FuturaFuturisC;-inkscape-font-specification:FuturaFuturisC;white-space:pre;opacity:1;fill:#0166b1;fill-opacity:1;stroke-width:2.58818;stroke-linecap:round;stroke-linejoin:round"
       d="m 533.00214,1230.013 c -6.6511,0 -11.96444,2.2287 -15.94139,6.6856 -3.97695,4.3883 -5.96482,10.2511 -5.96482,17.5879 0,7.6796 2.19366,13.5773 6.58202,17.6914 4.45692,4.1141 9.59944,6.1699 15.42773,6.1699 6.37683,0 11.65717,-1.85 15.83982,-5.5527 2.26275,-1.9885 4.25062,-4.5607 5.96482,-7.7149 l -8.84562,-4.9355 c -1.16566,2.7427 -2.70904,4.8335 -4.62895,6.2735 -2.12561,1.6456 -4.52506,2.4687 -7.19922,2.4687 -3.08556,0 -5.89659,-1.0639 -8.43361,-3.1895 -2.46845,-2.1256 -3.7361,-5.1074 -3.80467,-8.9472 h 32.49998 v -1.6465 c 0,-6.8568 -1.40548,-12.376 -4.21677,-16.5586 -3.77124,-5.554 -9.53113,-8.3321 -17.27932,-8.3321 z m 0.20707,9.4629 c 2.60559,0 4.83225,0.7552 6.68359,2.2637 1.91991,1.5085 3.18953,3.5644 3.80664,6.1699 h -21.08399 c 0.68568,-2.537 1.9883,-4.5598 3.90821,-6.0683 1.9199,-1.5771 4.14853,-2.3653 6.68555,-2.3653 z" />
    <path
       style="font-family:FuturaFuturisC;-inkscape-font-specification:FuturaFuturisC;white-space:pre;opacity:1;fill:#0166b1;fill-opacity:1;stroke-width:2.58818;stroke-linecap:round;stroke-linejoin:round"
       d="m 505.67107,1241.4932 h -8.02247 v 35.2155 h -10.49091 v -35.2155 h -4.52549 v -10.2451 h 4.52549 v -16.2506 h 10.49091 v 16.2506 h 8.02247 z"
       id="path8" />
    <path
       style="font-family:FuturaFuturisC;-inkscape-font-specification:FuturaFuturisC;white-space:pre;opacity:1;fill:#0166b1;fill-opacity:1;stroke-width:2.58818;stroke-linecap:round;stroke-linejoin:round"
       d="m 463.80804,1218.0675 q -1.95419,-2.0571 -1.95419,-4.8341 0,-2.777 1.95419,-4.7312 2.05704,-2.057 4.83405,-2.057 2.777,0 4.73119,2.057 2.05705,1.9542 2.05705,4.7312 0,2.777 -2.05705,4.8341 -1.95419,1.9542 -4.73119,1.9542 -2.77701,0 -4.83405,-1.9542 z"
       id="path7" />
    <path
       style="font-family:FuturaFuturisC;-inkscape-font-specification:FuturaFuturisC;white-space:pre;opacity:1;fill:#0166b1;fill-opacity:1;stroke-width:2.58818;stroke-linecap:round;stroke-linejoin:round"
       d="m 463.39663,1231.2481 h 10.49091 v 45.4606 h -10.49091 z"
       id="path6" />
    <path
       style="font-family:FuturaFuturisC;-inkscape-font-specification:FuturaFuturisC;white-space:pre;opacity:1;fill:#0166b1;fill-opacity:1;stroke-width:2.58818;stroke-linecap:round;stroke-linejoin:round"
       d="m 427.29871,1276.7087 v -45.4606 h 10.49091 v 4.1141 q 4.31979,-5.3483 10.79948,-5.3483 4.62834,0 8.53672,2.6741 l -4.7312,9.5653 q -2.5713,-2.1599 -5.96542,-2.1599 -4.52549,0 -6.78824,3.5998 -1.85134,2.9827 -1.85134,9.3596 v 23.6559 z"
       id="path5" />
    <path
       style="font-family:FuturaFuturisC;-inkscape-font-specification:FuturaFuturisC;white-space:pre;opacity:1;fill:#0166b1;fill-opacity:1;stroke-width:2.58818;stroke-linecap:round;stroke-linejoin:round"
       d="m 376.27851,1231.2481 h 10.49091 v 26.1244 q 0,5.7598 1.95419,8.2282 2.3656,3.0856 6.99394,3.0856 4.62835,0 6.99395,-3.0856 1.95419,-2.4684 1.95419,-8.2282 v -26.1244 h 10.49091 v 26.3301 q 0,4.9369 -0.92567,8.4339 -0.82282,3.3941 -3.90838,6.4797 -5.45116,5.6569 -14.8107,5.6569 -8.84528,0 -14.3993,-5.6569 -3.08556,-3.0856 -4.01123,-6.4797 -0.82281,-3.497 -0.82281,-8.4339 z"
       id="path4" />
    <path
       id="path2"
       style="font-family:FuturaFuturisC;-inkscape-font-specification:FuturaFuturisC;white-space:pre;opacity:1;fill:#0166b1;fill-opacity:1;stroke-width:2.58818;stroke-linecap:round;stroke-linejoin:round"
       d="m 339.90868,1230.013 c -6.78824,0 -12.16954,2.3665 -16.14649,7.0977 -3.97695,4.7312 -5.96679,10.3532 -5.96679,16.8672 0,6.514 1.98984,12.1709 5.96679,16.9707 4.04552,4.7998 9.39382,7.1992 16.04493,7.1992 5.69115,0 10.28426,-2.0558 13.78124,-6.1699 v 4.7305 h 10.4922 v -45.461 h -10.4922 v 5.3496 c -3.2227,-4.3883 -7.78282,-6.584 -13.67968,-6.584 z m 1.54296,9.4629 c 3.56554,0 6.58236,1.2697 9.05081,3.8067 2.46845,2.537 3.7031,6.1362 3.7031,10.7988 0,4.2513 -1.1648,7.7476 -3.49611,10.4903 -2.26275,2.7427 -5.34942,4.1152 -9.2578,4.1152 -3.90838,0 -7.02806,-1.4055 -9.35937,-4.2168 -2.26275,-2.8113 -3.39455,-6.2397 -3.39455,-10.2852 0,-4.1827 1.16677,-7.6809 3.49808,-10.4922 2.39989,-2.8112 5.48459,-4.2168 9.25584,-4.2168 z" />
    <path
       style="font-family:FuturaFuturisC;-inkscape-font-specification:FuturaFuturisC;white-space:pre;opacity:1;fill:#0166b1;fill-opacity:1;stroke-width:2.58818;stroke-linecap:round;stroke-linejoin:round"
       d="m 240.68831,1276.7087 h -11.31373 l 15.11925,-77.3447 24.99307,55.7458 25.30161,-55.7458 13.57648,77.3447 h -11.31373 l -7.19965,-43.4036 -20.98183,46.6949 -20.67327,-46.7977 z"
       id="text1" />
    <path
       style="font-family:FuturaFuturisC;-inkscape-font-specification:FuturaFuturisC;white-space:pre;opacity:1;fill:#0166b1;fill-opacity:1;stroke-width:2.62567;stroke-linecap:round;stroke-linejoin:round"
       d="m 565.04529,1198.9066 h 10.49091 v 77.8021 h -10.49091 z"
       id="path11" />
    <path
       id="path12"
       style="opacity:1;fill:#0166b1;fill-opacity:1;stroke:none;stroke-width:0.42723;stroke-linecap:round;stroke-linejoin:round"
       d="m 340.84652,884.66929 a 52.085751,46.745522 0 0 0 -52.08593,46.7461 52.085751,46.745522 0 0 0 52.08593,46.74414 52.085751,46.745522 0 0 0 52.08594,-46.74414 52.085751,46.745522 0 0 0 -52.08594,-46.7461 z m 0,27.9668 a 18.678293,18.678293 0 0 1 18.67774,18.67773 18.678293,18.678293 0 0 1 -18.67774,18.67969 18.678293,18.678293 0 0 1 -18.67773,-18.67969 18.678293,18.678293 0 0 1 18.67773,-18.67773 z" />
    <path
       id="path12-4"
       style="opacity:1;fill:#0166b1;fill-opacity:1;stroke:none;stroke-width:0.42723;stroke-linecap:round;stroke-linejoin:round"
       d="m 469.96175,884.66929 a 52.085751,46.745522 0 0 0 -52.08593,46.7461 52.085751,46.745522 0 0 0 52.08593,46.74414 52.085751,46.745522 0 0 0 52.08594,-46.74414 52.085751,46.745522 0 0 0 -52.08594,-46.7461 z m 0,27.9668 a 18.678293,18.678293 0 0 1 18.67774,18.67773 18.678293,18.678293 0 0 1 -18.67774,18.67969 18.678293,18.678293 0 0 1 -18.67773,-18.67969 18.678293,18.678293 0 0 1 18.67773,-18.67773 z" />
    <path
       style="opacity:1;fill:#0166b1;fill-opacity:1;stroke:none;stroke-width:0.301969;stroke-linecap:round;stroke-linejoin:round"
       d="m 751.59588,926.70838 53.63713,-59.76727 c 2.38466,-2.6572 6.59798,-2.49054 8.76532,0.3467 0,0 15.92549,19.89068 24.06619,30.54758 6.1508,8.052 18.8082,25.57913 18.8082,25.57913 3.0918,4.0475 3.0807,9.66675 -0.027,13.70199 0,0 -13.3919,18.3945 -20.0878,27.08861 -7.7769,10.0976 -23.33063,29.28651 -23.33063,29.28651 -2.60813,3.38643 -7.64483,3.58826 -10.51556,0.42138 l -51.28924,-56.58036 c -2.72984,-3.01147 -2.74129,-7.59922 -0.0265,-10.62427 z"
       id="path23" />
    <path
       style="opacity:1;fill:#f6821f;fill-opacity:1;stroke:none;stroke-width:0.301969;stroke-linecap:round;stroke-linejoin:round"
       d="m 828.00682,839.86102 20.8902,-25.93821 c 1.7978,-2.23225 4.7016,-2.22345 6.4762,0.0273 5.2662,6.67934 15.7062,20.03617 21.445,28.16098 3.7085,5.25042 9.5106,14.76035 12.7158,20.09143 1.2896,2.14504 1.2759,6.38129 0.628,8.79921 -1.4149,5.28066 -2.6216,8.29278 -4.4356,12.79137 -2.6223,6.50338 -8.8733,19.51015 -8.8733,19.51015 -1.5381,3.81452 -4.6946,4.17361 -7.0615,0.80996 -5.5304,-7.85933 -15.1735,-21.47476 -21.263,-29.57367 -5.3854,-7.16249 -15.2355,-19.40588 -20.506,-25.91732 -1.9571,-2.41798 -1.9676,-6.3378 -0.016,-8.76123 z"
       id="path24" />
    <path
       style="opacity:1;fill:#f6821f;fill-opacity:1;stroke:none;stroke-width:0.301969;stroke-linecap:round;stroke-linejoin:round"
       d="m 828.25572,1013.5215 c 0,0 16.0498,-19.6036 23.7728,-29.75761 6.5572,-8.62131 19.0679,-26.56835 19.0679,-26.56835 1.2372,-1.62665 3.7622,-1.34625 4.6124,0.5122 0,0 5.3683,10.41501 7.7506,15.62251 2.3503,5.13763 6.4471,15.41288 6.4471,15.41288 2.4357,5.32426 1.7809,11.55217 -1.709,16.25327 0,0 -8.4787,12.6415 -13.1708,18.9622 -5.984,8.061 -18.8576,24.1828 -18.8576,24.1828 -1.9059,2.5675 -5.7265,2.6342 -7.7209,0.1348 l -20.081,-25.1654 c -2.2292,-2.7936 -2.2751,-6.7446 -0.1115,-9.5893 z"
       id="path25" />
    <path
       style="opacity:1;fill:#f6821f;fill-opacity:1;stroke:none;stroke-width:0.301969;stroke-linecap:round;stroke-linejoin:round"
       d="m 887.74652,926.70831 c 0,0 5.4168,-11.3026 7.2713,-16.02889 5.4191,-13.81105 7.6608,-22.02601 7.6608,-22.02601 1.0185,-2.59556 2.7858,-2.64467 3.9012,-0.0893 3.3428,7.65796 5.181,14.46525 9.2608,28.47131 1.9981,6.85929 2.5183,17.98378 0.3775,24.80136 -3.6777,11.71183 -5.2991,16.30183 -10.9235,30.09148 -1.0855,2.66135 -2.8116,2.63383 -3.8353,-0.0532 0,0 -4.6529,-14.13397 -7.264,-20.98748 -1.9748,-5.18352 -6.4937,-15.12363 -6.4937,-15.12363 -1.1121,-2.91903 -1.096,-6.14779 0.045,-9.05562 z"
       id="path26" />
  </g>
</svg>
